<svg xmlns="http://www.w3.org/2000/svg" width="400" height="400" viewBox="0 0 400 400">
<defs><linearGradient id="bg" x1="0" y1="0" x2="1" y2="1"><stop offset="0" stop-color="#0a0824"/><stop offset="1" stop-color="#061f2b"/></linearGradient><radialGradient id="h"><stop offset="0" stop-color="#8b6cff" stop-opacity=".45"/><stop offset="1" stop-color="#8b6cff" stop-opacity="0"/></radialGradient><filter id="glow" x="-50%" y="-50%" width="200%" height="200%"><feGaussianBlur stdDeviation="3" result="b"/><feMerge><feMergeNode in="b"/><feMergeNode in="SourceGraphic"/></feMerge></filter><clipPath id="clip"><rect width="400" height="400" rx="20"/></clipPath></defs>
<style>text{font-family:'Segoe UI',Inter,Helvetica,Arial,sans-serif}.mono{font-family:ui-monospace,SFMono-Regular,Menlo,Consolas,'Liberation Mono',monospace}.kern{animation:kn 6s cubic-bezier(.7,0,.3,1) infinite}@keyframes kn{0%,22%{transform:translate(0.0px,0.0px)}25%,47%{transform:translate(24.2px,14.0px)}50%,72%{transform:translate(-24.2px,14.0px)}75%,97%{transform:translate(0.0px,28.0px)}100%{transform:translate(0,0)}}.beam{animation:bm 1.5s ease-in-out infinite}@keyframes bm{50%{opacity:.25}}.float{animation:fl 5s ease-in-out infinite}@keyframes fl{50%{transform:translateY(-7px)}}.halo{transform-box:fill-box;transform-origin:center;animation:hl 4s ease-in-out infinite}@keyframes hl{50%{transform:scale(1.12);opacity:.6}}.o0{animation:o0 6s steps(1) infinite}@keyframes o0{0%{fill:#1c1650}6%{fill:#24c6dc}100%{fill:#24c6dc}}.o1{animation:o1 6s steps(1) infinite}@keyframes o1{0%{fill:#1c1650}31%{fill:#24c6dc}100%{fill:#24c6dc}}.o2{animation:o2 6s steps(1) infinite}@keyframes o2{0%{fill:#1c1650}56%{fill:#24c6dc}100%{fill:#24c6dc}}.o3{animation:o3 6s steps(1) infinite}@keyframes o3{0%{fill:#1c1650}81%{fill:#24c6dc}100%{fill:#24c6dc}}</style>
<g clip-path="url(#clip)"><rect width="400" height="400" fill="url(#bg)"/><ellipse class="halo" cx="200" cy="265" rx="170" ry="120" fill="url(#h)"/><g><polygon points="178.3,217.5 200.0,230.0 200.0,205.0 178.3,192.5" fill="#241c66"/><polygon points="221.7,217.5 200.0,230.0 200.0,205.0 221.7,192.5" fill="#150f40"/><polygon points="200.0,180.0 221.7,192.5 200.0,205.0 178.3,192.5" fill="#3a2f9a" stroke="#24c6dc" stroke-opacity="0.55" stroke-width=".8"/></g><g><polygon points="154.1,231.5 175.8,244.0 175.8,219.0 154.1,206.5" fill="#241c66"/><polygon points="197.4,231.5 175.8,244.0 175.8,219.0 197.4,206.5" fill="#150f40"/><polygon points="175.8,194.0 197.4,206.5 175.8,219.0 154.1,206.5" fill="#3a2f9a" stroke="#24c6dc" stroke-opacity="0.55" stroke-width=".8"/></g><g><polygon points="202.6,231.5 224.2,244.0 224.2,219.0 202.6,206.5" fill="#241c66"/><polygon points="245.9,231.5 224.2,244.0 224.2,219.0 245.9,206.5" fill="#150f40"/><polygon points="224.2,194.0 245.9,206.5 224.2,219.0 202.6,206.5" fill="#3a2f9a" stroke="#24c6dc" stroke-opacity="0.55" stroke-width=".8"/></g><g><polygon points="129.9,245.5 151.5,258.0 151.5,233.0 129.9,220.5" fill="#241c66"/><polygon points="173.2,245.5 151.5,258.0 151.5,233.0 173.2,220.5" fill="#150f40"/><polygon points="151.5,208.0 173.2,220.5 151.5,233.0 129.9,220.5" fill="#3a2f9a" stroke="#24c6dc" stroke-opacity="0.55" stroke-width=".8"/></g><g><polygon points="178.3,245.5 200.0,258.0 200.0,233.0 178.3,220.5" fill="#241c66"/><polygon points="221.7,245.5 200.0,258.0 200.0,233.0 221.7,220.5" fill="#150f40"/><polygon points="200.0,208.0 221.7,220.5 200.0,233.0 178.3,220.5" fill="#3a2f9a" stroke="#24c6dc" stroke-opacity="0.55" stroke-width=".8"/></g><g><polygon points="226.8,245.5 248.5,258.0 248.5,233.0 226.8,220.5" fill="#241c66"/><polygon points="270.1,245.5 248.5,258.0 248.5,233.0 270.1,220.5" fill="#150f40"/><polygon points="248.5,208.0 270.1,220.5 248.5,233.0 226.8,220.5" fill="#3a2f9a" stroke="#24c6dc" stroke-opacity="0.55" stroke-width=".8"/></g><g><polygon points="105.6,259.5 127.3,272.0 127.3,247.0 105.6,234.5" fill="#241c66"/><polygon points="148.9,259.5 127.3,272.0 127.3,247.0 148.9,234.5" fill="#150f40"/><polygon points="127.3,222.0 148.9,234.5 127.3,247.0 105.6,234.5" fill="#3a2f9a" stroke="#24c6dc" stroke-opacity="0.55" stroke-width=".8"/></g><g><polygon points="154.1,259.5 175.8,272.0 175.8,247.0 154.1,234.5" fill="#241c66"/><polygon points="197.4,259.5 175.8,272.0 175.8,247.0 197.4,234.5" fill="#150f40"/><polygon points="175.8,222.0 197.4,234.5 175.8,247.0 154.1,234.5" fill="#3a2f9a" stroke="#24c6dc" stroke-opacity="0.55" stroke-width=".8"/></g><g><polygon points="202.6,259.5 224.2,272.0 224.2,247.0 202.6,234.5" fill="#241c66"/><polygon points="245.9,259.5 224.2,272.0 224.2,247.0 245.9,234.5" fill="#150f40"/><polygon points="224.2,222.0 245.9,234.5 224.2,247.0 202.6,234.5" fill="#3a2f9a" stroke="#24c6dc" stroke-opacity="0.55" stroke-width=".8"/></g><g><polygon points="251.1,259.5 272.7,272.0 272.7,247.0 251.1,234.5" fill="#241c66"/><polygon points="294.4,259.5 272.7,272.0 272.7,247.0 294.4,234.5" fill="#150f40"/><polygon points="272.7,222.0 294.4,234.5 272.7,247.0 251.1,234.5" fill="#3a2f9a" stroke="#24c6dc" stroke-opacity="0.55" stroke-width=".8"/></g><g><polygon points="129.9,273.5 151.5,286.0 151.5,261.0 129.9,248.5" fill="#241c66"/><polygon points="173.2,273.5 151.5,286.0 151.5,261.0 173.2,248.5" fill="#150f40"/><polygon points="151.5,236.0 173.2,248.5 151.5,261.0 129.9,248.5" fill="#3a2f9a" stroke="#24c6dc" stroke-opacity="0.55" stroke-width=".8"/></g><g><polygon points="178.3,273.5 200.0,286.0 200.0,261.0 178.3,248.5" fill="#241c66"/><polygon points="221.7,273.5 200.0,286.0 200.0,261.0 221.7,248.5" fill="#150f40"/><polygon points="200.0,236.0 221.7,248.5 200.0,261.0 178.3,248.5" fill="#3a2f9a" stroke="#24c6dc" stroke-opacity="0.55" stroke-width=".8"/></g><g><polygon points="226.8,273.5 248.5,286.0 248.5,261.0 226.8,248.5" fill="#241c66"/><polygon points="270.1,273.5 248.5,286.0 248.5,261.0 270.1,248.5" fill="#150f40"/><polygon points="248.5,236.0 270.1,248.5 248.5,261.0 226.8,248.5" fill="#3a2f9a" stroke="#24c6dc" stroke-opacity="0.55" stroke-width=".8"/></g><g><polygon points="154.1,287.5 175.8,300.0 175.8,275.0 154.1,262.5" fill="#241c66"/><polygon points="197.4,287.5 175.8,300.0 175.8,275.0 197.4,262.5" fill="#150f40"/><polygon points="175.8,250.0 197.4,262.5 175.8,275.0 154.1,262.5" fill="#3a2f9a" stroke="#24c6dc" stroke-opacity="0.55" stroke-width=".8"/></g><g><polygon points="202.6,287.5 224.2,300.0 224.2,275.0 202.6,262.5" fill="#241c66"/><polygon points="245.9,287.5 224.2,300.0 224.2,275.0 245.9,262.5" fill="#150f40"/><polygon points="224.2,250.0 245.9,262.5 224.2,275.0 202.6,262.5" fill="#3a2f9a" stroke="#24c6dc" stroke-opacity="0.55" stroke-width=".8"/></g><g><polygon points="178.3,301.5 200.0,314.0 200.0,289.0 178.3,276.5" fill="#241c66"/><polygon points="221.7,301.5 200.0,314.0 200.0,289.0 221.7,276.5" fill="#150f40"/><polygon points="200.0,264.0 221.7,276.5 200.0,289.0 178.3,276.5" fill="#3a2f9a" stroke="#24c6dc" stroke-opacity="0.55" stroke-width=".8"/></g><g><polygon points="178.3,189.5 200.0,202.0 200.0,177.0 178.3,164.5" fill="#241c66"/><polygon points="221.7,189.5 200.0,202.0 200.0,177.0 221.7,164.5" fill="#150f40"/><polygon points="200.0,152.0 221.7,164.5 200.0,177.0 178.3,164.5" fill="#3a2f9a" stroke="#24c6dc" stroke-opacity="0.55" stroke-width=".8"/></g><g><polygon points="154.1,203.5 175.8,216.0 175.8,191.0 154.1,178.5" fill="#241c66"/><polygon points="197.4,203.5 175.8,216.0 175.8,191.0 197.4,178.5" fill="#150f40"/><polygon points="175.8,166.0 197.4,178.5 175.8,191.0 154.1,178.5" fill="#3a2f9a" stroke="#24c6dc" stroke-opacity="0.55" stroke-width=".8"/></g><g><polygon points="202.6,203.5 224.2,216.0 224.2,191.0 202.6,178.5" fill="#241c66"/><polygon points="245.9,203.5 224.2,216.0 224.2,191.0 245.9,178.5" fill="#150f40"/><polygon points="224.2,166.0 245.9,178.5 224.2,191.0 202.6,178.5" fill="#3a2f9a" stroke="#24c6dc" stroke-opacity="0.55" stroke-width=".8"/></g><g><polygon points="129.9,217.5 151.5,230.0 151.5,205.0 129.9,192.5" fill="#241c66"/><polygon points="173.2,217.5 151.5,230.0 151.5,205.0 173.2,192.5" fill="#150f40"/><polygon points="151.5,180.0 173.2,192.5 151.5,205.0 129.9,192.5" fill="#3a2f9a" stroke="#24c6dc" stroke-opacity="0.55" stroke-width=".8"/></g><g><polygon points="178.3,217.5 200.0,230.0 200.0,205.0 178.3,192.5" fill="#241c66"/><polygon points="221.7,217.5 200.0,230.0 200.0,205.0 221.7,192.5" fill="#150f40"/><polygon points="200.0,180.0 221.7,192.5 200.0,205.0 178.3,192.5" fill="#3a2f9a" stroke="#24c6dc" stroke-opacity="0.55" stroke-width=".8"/></g><g><polygon points="226.8,217.5 248.5,230.0 248.5,205.0 226.8,192.5" fill="#241c66"/><polygon points="270.1,217.5 248.5,230.0 248.5,205.0 270.1,192.5" fill="#150f40"/><polygon points="248.5,180.0 270.1,192.5 248.5,205.0 226.8,192.5" fill="#3a2f9a" stroke="#24c6dc" stroke-opacity="0.55" stroke-width=".8"/></g><g><polygon points="105.6,231.5 127.3,244.0 127.3,219.0 105.6,206.5" fill="#241c66"/><polygon points="148.9,231.5 127.3,244.0 127.3,219.0 148.9,206.5" fill="#150f40"/><polygon points="127.3,194.0 148.9,206.5 127.3,219.0 105.6,206.5" fill="#3a2f9a" stroke="#24c6dc" stroke-opacity="0.55" stroke-width=".8"/></g><g><polygon points="154.1,231.5 175.8,244.0 175.8,219.0 154.1,206.5" fill="#241c66"/><polygon points="197.4,231.5 175.8,244.0 175.8,219.0 197.4,206.5" fill="#150f40"/><polygon points="175.8,194.0 197.4,206.5 175.8,219.0 154.1,206.5" fill="#3a2f9a" stroke="#24c6dc" stroke-opacity="0.55" stroke-width=".8"/></g><g><polygon points="202.6,231.5 224.2,244.0 224.2,219.0 202.6,206.5" fill="#241c66"/><polygon points="245.9,231.5 224.2,244.0 224.2,219.0 245.9,206.5" fill="#150f40"/><polygon points="224.2,194.0 245.9,206.5 224.2,219.0 202.6,206.5" fill="#3a2f9a" stroke="#24c6dc" stroke-opacity="0.55" stroke-width=".8"/></g><g><polygon points="251.1,231.5 272.7,244.0 272.7,219.0 251.1,206.5" fill="#241c66"/><polygon points="294.4,231.5 272.7,244.0 272.7,219.0 294.4,206.5" fill="#150f40"/><polygon points="272.7,194.0 294.4,206.5 272.7,219.0 251.1,206.5" fill="#3a2f9a" stroke="#24c6dc" stroke-opacity="0.55" stroke-width=".8"/></g><g><polygon points="129.9,245.5 151.5,258.0 151.5,233.0 129.9,220.5" fill="#241c66"/><polygon points="173.2,245.5 151.5,258.0 151.5,233.0 173.2,220.5" fill="#150f40"/><polygon points="151.5,208.0 173.2,220.5 151.5,233.0 129.9,220.5" fill="#3a2f9a" stroke="#24c6dc" stroke-opacity="0.55" stroke-width=".8"/></g><g><polygon points="178.3,245.5 200.0,258.0 200.0,233.0 178.3,220.5" fill="#241c66"/><polygon points="221.7,245.5 200.0,258.0 200.0,233.0 221.7,220.5" fill="#150f40"/><polygon points="200.0,208.0 221.7,220.5 200.0,233.0 178.3,220.5" fill="#3a2f9a" stroke="#24c6dc" stroke-opacity="0.55" stroke-width=".8"/></g><g><polygon points="226.8,245.5 248.5,258.0 248.5,233.0 226.8,220.5" fill="#241c66"/><polygon points="270.1,245.5 248.5,258.0 248.5,233.0 270.1,220.5" fill="#150f40"/><polygon points="248.5,208.0 270.1,220.5 248.5,233.0 226.8,220.5" fill="#3a2f9a" stroke="#24c6dc" stroke-opacity="0.55" stroke-width=".8"/></g><g><polygon points="154.1,259.5 175.8,272.0 175.8,247.0 154.1,234.5" fill="#241c66"/><polygon points="197.4,259.5 175.8,272.0 175.8,247.0 197.4,234.5" fill="#150f40"/><polygon points="175.8,222.0 197.4,234.5 175.8,247.0 154.1,234.5" fill="#3a2f9a" stroke="#24c6dc" stroke-opacity="0.55" stroke-width=".8"/></g><g><polygon points="202.6,259.5 224.2,272.0 224.2,247.0 202.6,234.5" fill="#241c66"/><polygon points="245.9,259.5 224.2,272.0 224.2,247.0 245.9,234.5" fill="#150f40"/><polygon points="224.2,222.0 245.9,234.5 224.2,247.0 202.6,234.5" fill="#3a2f9a" stroke="#24c6dc" stroke-opacity="0.55" stroke-width=".8"/></g><g><polygon points="178.3,273.5 200.0,286.0 200.0,261.0 178.3,248.5" fill="#241c66"/><polygon points="221.7,273.5 200.0,286.0 200.0,261.0 221.7,248.5" fill="#150f40"/><polygon points="200.0,236.0 221.7,248.5 200.0,261.0 178.3,248.5" fill="#3a2f9a" stroke="#24c6dc" stroke-opacity="0.55" stroke-width=".8"/></g><g><polygon points="178.3,161.5 200.0,174.0 200.0,149.0 178.3,136.5" fill="#241c66"/><polygon points="221.7,161.5 200.0,174.0 200.0,149.0 221.7,136.5" fill="#150f40"/><polygon points="200.0,124.0 221.7,136.5 200.0,149.0 178.3,136.5" fill="#3a2f9a" stroke="#24c6dc" stroke-opacity="0.55" stroke-width=".8"/></g><g><polygon points="154.1,175.5 175.8,188.0 175.8,163.0 154.1,150.5" fill="#241c66"/><polygon points="197.4,175.5 175.8,188.0 175.8,163.0 197.4,150.5" fill="#150f40"/><polygon points="175.8,138.0 197.4,150.5 175.8,163.0 154.1,150.5" fill="#3a2f9a" stroke="#24c6dc" stroke-opacity="0.55" stroke-width=".8"/></g><g><polygon points="202.6,175.5 224.2,188.0 224.2,163.0 202.6,150.5" fill="#241c66"/><polygon points="245.9,175.5 224.2,188.0 224.2,163.0 245.9,150.5" fill="#150f40"/><polygon points="224.2,138.0 245.9,150.5 224.2,163.0 202.6,150.5" fill="#3a2f9a" stroke="#24c6dc" stroke-opacity="0.55" stroke-width=".8"/></g><g><polygon points="129.9,189.5 151.5,202.0 151.5,177.0 129.9,164.5" fill="#241c66"/><polygon points="173.2,189.5 151.5,202.0 151.5,177.0 173.2,164.5" fill="#150f40"/><polygon points="151.5,152.0 173.2,164.5 151.5,177.0 129.9,164.5" fill="#3a2f9a" stroke="#24c6dc" stroke-opacity="0.55" stroke-width=".8"/></g><g><polygon points="178.3,189.5 200.0,202.0 200.0,177.0 178.3,164.5" fill="#241c66"/><polygon points="221.7,189.5 200.0,202.0 200.0,177.0 221.7,164.5" fill="#150f40"/><polygon points="200.0,152.0 221.7,164.5 200.0,177.0 178.3,164.5" fill="#3a2f9a" stroke="#24c6dc" stroke-opacity="0.55" stroke-width=".8"/></g><g><polygon points="226.8,189.5 248.5,202.0 248.5,177.0 226.8,164.5" fill="#241c66"/><polygon points="270.1,189.5 248.5,202.0 248.5,177.0 270.1,164.5" fill="#150f40"/><polygon points="248.5,152.0 270.1,164.5 248.5,177.0 226.8,164.5" fill="#3a2f9a" stroke="#24c6dc" stroke-opacity="0.55" stroke-width=".8"/></g><g><polygon points="105.6,203.5 127.3,216.0 127.3,191.0 105.6,178.5" fill="#241c66"/><polygon points="148.9,203.5 127.3,216.0 127.3,191.0 148.9,178.5" fill="#150f40"/><polygon points="127.3,166.0 148.9,178.5 127.3,191.0 105.6,178.5" fill="#3a2f9a" stroke="#24c6dc" stroke-opacity="0.55" stroke-width=".8"/></g><g><polygon points="154.1,203.5 175.8,216.0 175.8,191.0 154.1,178.5" fill="#241c66"/><polygon points="197.4,203.5 175.8,216.0 175.8,191.0 197.4,178.5" fill="#150f40"/><polygon points="175.8,166.0 197.4,178.5 175.8,191.0 154.1,178.5" fill="#3a2f9a" stroke="#24c6dc" stroke-opacity="0.55" stroke-width=".8"/></g><g><polygon points="202.6,203.5 224.2,216.0 224.2,191.0 202.6,178.5" fill="#241c66"/><polygon points="245.9,203.5 224.2,216.0 224.2,191.0 245.9,178.5" fill="#150f40"/><polygon points="224.2,166.0 245.9,178.5 224.2,191.0 202.6,178.5" fill="#3a2f9a" stroke="#24c6dc" stroke-opacity="0.55" stroke-width=".8"/></g><g><polygon points="251.1,203.5 272.7,216.0 272.7,191.0 251.1,178.5" fill="#241c66"/><polygon points="294.4,203.5 272.7,216.0 272.7,191.0 294.4,178.5" fill="#150f40"/><polygon points="272.7,166.0 294.4,178.5 272.7,191.0 251.1,178.5" fill="#3a2f9a" stroke="#24c6dc" stroke-opacity="0.55" stroke-width=".8"/></g><g><polygon points="129.9,217.5 151.5,230.0 151.5,205.0 129.9,192.5" fill="#241c66"/><polygon points="173.2,217.5 151.5,230.0 151.5,205.0 173.2,192.5" fill="#150f40"/><polygon points="151.5,180.0 173.2,192.5 151.5,205.0 129.9,192.5" fill="#3a2f9a" stroke="#24c6dc" stroke-opacity="0.55" stroke-width=".8"/></g><g><polygon points="178.3,217.5 200.0,230.0 200.0,205.0 178.3,192.5" fill="#241c66"/><polygon points="221.7,217.5 200.0,230.0 200.0,205.0 221.7,192.5" fill="#150f40"/><polygon points="200.0,180.0 221.7,192.5 200.0,205.0 178.3,192.5" fill="#3a2f9a" stroke="#24c6dc" stroke-opacity="0.55" stroke-width=".8"/></g><g><polygon points="226.8,217.5 248.5,230.0 248.5,205.0 226.8,192.5" fill="#241c66"/><polygon points="270.1,217.5 248.5,230.0 248.5,205.0 270.1,192.5" fill="#150f40"/><polygon points="248.5,180.0 270.1,192.5 248.5,205.0 226.8,192.5" fill="#3a2f9a" stroke="#24c6dc" stroke-opacity="0.55" stroke-width=".8"/></g><g><polygon points="154.1,231.5 175.8,244.0 175.8,219.0 154.1,206.5" fill="#241c66"/><polygon points="197.4,231.5 175.8,244.0 175.8,219.0 197.4,206.5" fill="#150f40"/><polygon points="175.8,194.0 197.4,206.5 175.8,219.0 154.1,206.5" fill="#3a2f9a" stroke="#24c6dc" stroke-opacity="0.55" stroke-width=".8"/></g><g><polygon points="202.6,231.5 224.2,244.0 224.2,219.0 202.6,206.5" fill="#241c66"/><polygon points="245.9,231.5 224.2,244.0 224.2,219.0 245.9,206.5" fill="#150f40"/><polygon points="224.2,194.0 245.9,206.5 224.2,219.0 202.6,206.5" fill="#3a2f9a" stroke="#24c6dc" stroke-opacity="0.55" stroke-width=".8"/></g><g><polygon points="178.3,245.5 200.0,258.0 200.0,233.0 178.3,220.5" fill="#241c66"/><polygon points="221.7,245.5 200.0,258.0 200.0,233.0 221.7,220.5" fill="#150f40"/><polygon points="200.0,208.0 221.7,220.5 200.0,233.0 178.3,220.5" fill="#3a2f9a" stroke="#24c6dc" stroke-opacity="0.55" stroke-width=".8"/></g><g><polygon points="178.3,133.5 200.0,146.0 200.0,121.0 178.3,108.5" fill="#241c66"/><polygon points="221.7,133.5 200.0,146.0 200.0,121.0 221.7,108.5" fill="#150f40"/><polygon points="200.0,96.0 221.7,108.5 200.0,121.0 178.3,108.5" fill="#4a3bb8" stroke="#24c6dc" stroke-opacity="0.55" stroke-width=".8"/></g><g><polygon points="154.1,147.5 175.8,160.0 175.8,135.0 154.1,122.5" fill="#241c66"/><polygon points="197.4,147.5 175.8,160.0 175.8,135.0 197.4,122.5" fill="#150f40"/><polygon points="175.8,110.0 197.4,122.5 175.8,135.0 154.1,122.5" fill="#4a3bb8" stroke="#24c6dc" stroke-opacity="0.55" stroke-width=".8"/></g><g><polygon points="202.6,147.5 224.2,160.0 224.2,135.0 202.6,122.5" fill="#241c66"/><polygon points="245.9,147.5 224.2,160.0 224.2,135.0 245.9,122.5" fill="#150f40"/><polygon points="224.2,110.0 245.9,122.5 224.2,135.0 202.6,122.5" fill="#4a3bb8" stroke="#24c6dc" stroke-opacity="0.55" stroke-width=".8"/></g><g><polygon points="129.9,161.5 151.5,174.0 151.5,149.0 129.9,136.5" fill="#241c66"/><polygon points="173.2,161.5 151.5,174.0 151.5,149.0 173.2,136.5" fill="#150f40"/><polygon points="151.5,124.0 173.2,136.5 151.5,149.0 129.9,136.5" fill="#4a3bb8" stroke="#24c6dc" stroke-opacity="0.55" stroke-width=".8"/></g><g><polygon points="178.3,161.5 200.0,174.0 200.0,149.0 178.3,136.5" fill="#241c66"/><polygon points="221.7,161.5 200.0,174.0 200.0,149.0 221.7,136.5" fill="#150f40"/><polygon points="200.0,124.0 221.7,136.5 200.0,149.0 178.3,136.5" fill="#4a3bb8" stroke="#24c6dc" stroke-opacity="0.55" stroke-width=".8"/></g><g><polygon points="226.8,161.5 248.5,174.0 248.5,149.0 226.8,136.5" fill="#241c66"/><polygon points="270.1,161.5 248.5,174.0 248.5,149.0 270.1,136.5" fill="#150f40"/><polygon points="248.5,124.0 270.1,136.5 248.5,149.0 226.8,136.5" fill="#4a3bb8" stroke="#24c6dc" stroke-opacity="0.55" stroke-width=".8"/></g><g><polygon points="105.6,175.5 127.3,188.0 127.3,163.0 105.6,150.5" fill="#241c66"/><polygon points="148.9,175.5 127.3,188.0 127.3,163.0 148.9,150.5" fill="#150f40"/><polygon points="127.3,138.0 148.9,150.5 127.3,163.0 105.6,150.5" fill="#4a3bb8" stroke="#24c6dc" stroke-opacity="0.55" stroke-width=".8"/></g><g><polygon points="154.1,175.5 175.8,188.0 175.8,163.0 154.1,150.5" fill="#241c66"/><polygon points="197.4,175.5 175.8,188.0 175.8,163.0 197.4,150.5" fill="#150f40"/><polygon points="175.8,138.0 197.4,150.5 175.8,163.0 154.1,150.5" fill="#4a3bb8" stroke="#24c6dc" stroke-opacity="0.55" stroke-width=".8"/></g><g><polygon points="202.6,175.5 224.2,188.0 224.2,163.0 202.6,150.5" fill="#241c66"/><polygon points="245.9,175.5 224.2,188.0 224.2,163.0 245.9,150.5" fill="#150f40"/><polygon points="224.2,138.0 245.9,150.5 224.2,163.0 202.6,150.5" fill="#4a3bb8" stroke="#24c6dc" stroke-opacity="0.55" stroke-width=".8"/></g><g><polygon points="251.1,175.5 272.7,188.0 272.7,163.0 251.1,150.5" fill="#241c66"/><polygon points="294.4,175.5 272.7,188.0 272.7,163.0 294.4,150.5" fill="#150f40"/><polygon points="272.7,138.0 294.4,150.5 272.7,163.0 251.1,150.5" fill="#4a3bb8" stroke="#24c6dc" stroke-opacity="0.55" stroke-width=".8"/></g><g><polygon points="129.9,189.5 151.5,202.0 151.5,177.0 129.9,164.5" fill="#241c66"/><polygon points="173.2,189.5 151.5,202.0 151.5,177.0 173.2,164.5" fill="#150f40"/><polygon points="151.5,152.0 173.2,164.5 151.5,177.0 129.9,164.5" fill="#4a3bb8" stroke="#24c6dc" stroke-opacity="0.55" stroke-width=".8"/></g><g><polygon points="178.3,189.5 200.0,202.0 200.0,177.0 178.3,164.5" fill="#241c66"/><polygon points="221.7,189.5 200.0,202.0 200.0,177.0 221.7,164.5" fill="#150f40"/><polygon points="200.0,152.0 221.7,164.5 200.0,177.0 178.3,164.5" fill="#4a3bb8" stroke="#24c6dc" stroke-opacity="0.55" stroke-width=".8"/></g><g><polygon points="226.8,189.5 248.5,202.0 248.5,177.0 226.8,164.5" fill="#241c66"/><polygon points="270.1,189.5 248.5,202.0 248.5,177.0 270.1,164.5" fill="#150f40"/><polygon points="248.5,152.0 270.1,164.5 248.5,177.0 226.8,164.5" fill="#4a3bb8" stroke="#24c6dc" stroke-opacity="0.55" stroke-width=".8"/></g><g><polygon points="154.1,203.5 175.8,216.0 175.8,191.0 154.1,178.5" fill="#241c66"/><polygon points="197.4,203.5 175.8,216.0 175.8,191.0 197.4,178.5" fill="#150f40"/><polygon points="175.8,166.0 197.4,178.5 175.8,191.0 154.1,178.5" fill="#4a3bb8" stroke="#24c6dc" stroke-opacity="0.55" stroke-width=".8"/></g><g><polygon points="202.6,203.5 224.2,216.0 224.2,191.0 202.6,178.5" fill="#241c66"/><polygon points="245.9,203.5 224.2,216.0 224.2,191.0 245.9,178.5" fill="#150f40"/><polygon points="224.2,166.0 245.9,178.5 224.2,191.0 202.6,178.5" fill="#4a3bb8" stroke="#24c6dc" stroke-opacity="0.55" stroke-width=".8"/></g><g><polygon points="178.3,217.5 200.0,230.0 200.0,205.0 178.3,192.5" fill="#241c66"/><polygon points="221.7,217.5 200.0,230.0 200.0,205.0 221.7,192.5" fill="#150f40"/><polygon points="200.0,180.0 221.7,192.5 200.0,205.0 178.3,192.5" fill="#4a3bb8" stroke="#24c6dc" stroke-opacity="0.55" stroke-width=".8"/></g><g class="kern"><polygon points="200.0,96.0 270.1,136.5 200.0,177.0 129.9,136.5" fill="#ff5ea8" fill-opacity=".35" stroke="#ff5ea8" stroke-width="2" filter="url(#glow)"/><text class="mono" x="200.0" y="112.0" font-size="9" fill="#fff" text-anchor="middle">1</text><text class="mono" x="175.8" y="126.0" font-size="9" fill="#fff" text-anchor="middle">1</text><text class="mono" x="151.5" y="140.0" font-size="9" fill="#fff" text-anchor="middle">1</text><text class="mono" x="224.2" y="126.0" font-size="9" fill="#fff" text-anchor="middle">0</text><text class="mono" x="200.0" y="140.0" font-size="9" fill="#fff" text-anchor="middle">0</text><text class="mono" x="175.8" y="154.0" font-size="9" fill="#fff" text-anchor="middle">0</text><text class="mono" x="248.5" y="140.0" font-size="9" fill="#fff" text-anchor="middle">-1</text><text class="mono" x="224.2" y="154.0" font-size="9" fill="#fff" text-anchor="middle">-1</text><text class="mono" x="200.0" y="168.0" font-size="9" fill="#fff" text-anchor="middle">-1</text><line class="beam" x1="200.0" y1="138.0" x2="200.0" y2="53.0" stroke="#ff5ea8" stroke-width="2" stroke-dasharray="3 4"/></g><g class="float"><polygon class="o0" points="200.0,39.0 221.7,51.5 200.0,64.0 178.3,51.5" fill="#1c1650" stroke="#24c6dc" stroke-width="1.2" filter="url(#glow)"/><polygon class="o1" points="224.2,53.0 245.9,65.5 224.2,78.0 202.6,65.5" fill="#1c1650" stroke="#24c6dc" stroke-width="1.2" filter="url(#glow)"/><polygon class="o2" points="175.8,53.0 197.4,65.5 175.8,78.0 154.1,65.5" fill="#1c1650" stroke="#24c6dc" stroke-width="1.2" filter="url(#glow)"/><polygon class="o3" points="200.0,67.0 221.7,79.5 200.0,92.0 178.3,79.5" fill="#1c1650" stroke="#24c6dc" stroke-width="1.2" filter="url(#glow)"/><text class="mono" x="265" y="72" font-size="10.5" fill="#24c6dc">feature map 2×2</text></g><text class="mono" x="22" y="342" font-size="11" fill="#24c6dc" letter-spacing="3">● CONV2D · 3×3 · STRIDE 1</text><text class="mono" x="22" y="360" font-size="10.5" fill="#9fb4d9">input 4×4×4 · kernel slides → activations</text><text class="mono" x="22" y="378" font-size="10.5" fill="#9fb4d9">edges · textures · parts · objects</text></g><rect x=".5" y=".5" width="399" height="399" rx="20" fill="none" stroke="#24c6dc" stroke-opacity=".3"/>
</svg>